<svg xmlns="http://www.w3.org/2000/svg" viewBox="0 0 472 82"><defs><style>.cls-1{fill:#fff;}.cls-2{fill:#cdcfd1;}.cls-3{fill:#dddace;}.cls-4{fill:#83919c;}</style></defs><title>Banner-01</title><g id="Layer_2" data-name="Layer 2"><g id="Layer_1-2" data-name="Layer 1"><rect class="cls-1" width="472" height="82"/><rect class="cls-2" x="2" y="0.9" width="80" height="80"/><circle class="cls-3" cx="41.1" cy="40.6" r="31.8"/><path class="cls-4" d="M25,20.5a9.2,9.2,0,0,0,0,1.7,2.5,2.5,0,0,0,.4.9,1.2,1.2,0,0,0,.9.5h6.2l.6.6c.2.1.2.2.3.4V33l-3.1,4.5-14.6-.2a26.6,26.6,0,0,1,3.1-9.4A26.3,26.3,0,0,1,25,20.5Z"/><path class="cls-4" d="M58.4,20.5a3.1,3.1,0,0,1,0,1.7,1.4,1.4,0,0,1-.4.9,1,1,0,0,1-.8.5H51l-.7.6-.3.4V33l3.2,4.5,14.5-.2a26.6,26.6,0,0,0-3.1-9.4A23.4,23.4,0,0,0,58.4,20.5Z"/><path class="cls-4" d="M28.5,53.6V43.9a1.3,1.3,0,0,0-.4-.7,2.8,2.8,0,0,0-.9-.5H15.6a22.9,22.9,0,0,0,9,18.2c.1-1.9.1-3.8.2-5.7a2.2,2.2,0,0,1,.3-1.1,1.5,1.5,0,0,1,1-.6Z"/><path class="cls-4" d="M54.7,53.4V43.7a5,5,0,0,1,.5-.7,1.4,1.4,0,0,1,.8-.4H67.7a22.9,22.9,0,0,1-9,18.1c-.1-1.9-.2-3.8-.2-5.7a1.8,1.8,0,0,0-.4-1.1,1.2,1.2,0,0,0-1-.6Z"/><path class="cls-4" d="M42.9,53.4h7.7a2.8,2.8,0,0,0,.6-.8,2.7,2.7,0,0,0,.4-1.3V41.1h-4a2.2,2.2,0,0,1-1-.8,1.6,1.6,0,0,1-.3-.8V21.1A13.6,13.6,0,0,1,48,19.3a9.7,9.7,0,0,1,2.6-1.4,2.1,2.1,0,0,0,0-1.8,2.2,2.2,0,0,0-.5-.6.7.7,0,0,0-.6-.2,23.7,23.7,0,0,0-4.1-.6H38.6a23.7,23.7,0,0,0-4.1.6.8.8,0,0,0-.6.2,2.2,2.2,0,0,0-.5.6,2.6,2.6,0,0,0,0,1.8A9.7,9.7,0,0,1,36,19.3a13.6,13.6,0,0,1,1.7,1.8V39.5a1.6,1.6,0,0,1-.3.8,2.2,2.2,0,0,1-1,.8h-4V51.3a2.7,2.7,0,0,0,.4,1.3,2.8,2.8,0,0,0,.6.8h9.5Z"/><path class="cls-4" d="M53,64.4V56.8H30.4v7.6a23.8,23.8,0,0,0,11,2.9A24.8,24.8,0,0,0,53,64.4Z"/><path d="M97.6,37.2h4.8v2H94.9V27.9h2.7Z"/><path d="M106.5,35.3v3.9h-2.6V27.9h4.3a4.7,4.7,0,0,1,3.2,1,3.6,3.6,0,0,1,0,5.4,4.7,4.7,0,0,1-3.2,1Zm0-2h1.7a1.7,1.7,0,0,0,1.3-.5,1.7,1.7,0,0,0,0-2.4,1.4,1.4,0,0,0-1.3-.5h-1.7Z"/><path d="M114.1,34.2l.7-6.3h6.6v2h-4.5l-.3,2.4.8-.4,1.1-.2a2.7,2.7,0,0,1,2.4,1,4.2,4.2,0,0,1,.9,2.9,3.6,3.6,0,0,1-1,2.7,3.8,3.8,0,0,1-3,1.1,4.7,4.7,0,0,1-2.8-.9,2.2,2.2,0,0,1-1.1-2.2h2.6a1.2,1.2,0,0,0,.3.9,1.8,1.8,0,0,0,1,.4,1.3,1.3,0,0,0,1.1-.5,2.3,2.3,0,0,0,.3-1.3,3.3,3.3,0,0,0-.4-1.5,1,1,0,0,0-1-.5c-.4,0-.7,0-.9.2a.7.7,0,0,0-.4.6Z"/><path d="M123.4,34.2l.6-6.3h6.7v2h-4.5l-.3,2.4a2,2,0,0,1,.8-.4l1.1-.2a3,3,0,0,1,2.4,1,4.2,4.2,0,0,1,.9,2.9,3.6,3.6,0,0,1-1,2.7,3.8,3.8,0,0,1-3,1.1,4.5,4.5,0,0,1-2.8-.9,2.5,2.5,0,0,1-1.2-2.2h2.6a1.3,1.3,0,0,0,.4.9,1.8,1.8,0,0,0,1,.4,1.1,1.1,0,0,0,1-.5,2.3,2.3,0,0,0,.3-1.3,3.3,3.3,0,0,0-.3-1.5c-.2-.4-.6-.5-1.1-.5a1.1,1.1,0,0,0-.8.2,1,1,0,0,0-.5.6Z"/><path d="M140.4,39.2h-7.9V37.5l3.5-3.8a9.7,9.7,0,0,0,1-1.5,2.2,2.2,0,0,0,.3-1,1.8,1.8,0,0,0-.3-1.1,1,1,0,0,0-.9-.4,1.4,1.4,0,0,0-1,.5,2.8,2.8,0,0,0-.3,1.3h-2.6a3.6,3.6,0,0,1,1-2.7,4,4,0,0,1,2.9-1.1,4.4,4.4,0,0,1,2.9.9,3.6,3.6,0,0,1,1,2.5,2.9,2.9,0,0,1-.6,1.9,21.2,21.2,0,0,1-2,2.5L136,37.2h4.4Z"/><path d="M145.5,32.4a2,2,0,0,0,1.1-.3,2,2,0,0,0,.3-1.1,1.2,1.2,0,0,0-.3-.9,1.5,1.5,0,0,0-1.1-.4,1.6,1.6,0,0,0-.9.3,1.1,1.1,0,0,0-.3.8h-2.6a2.5,2.5,0,0,1,1.1-2.2,4.6,4.6,0,0,1,2.7-.8,5.6,5.6,0,0,1,3,.8,3,3,0,0,1,1.1,2.4,2.7,2.7,0,0,1-.5,1.5,3.4,3.4,0,0,1-1.3,1,3.1,3.1,0,0,1,1.5,1,2.8,2.8,0,0,1,.5,1.6,2.9,2.9,0,0,1-1.2,2.5,5.5,5.5,0,0,1-5.9.1,2.6,2.6,0,0,1-1.1-2.5h2.5a1.8,1.8,0,0,0,.4.9,1.8,1.8,0,0,0,1,.4,2.1,2.1,0,0,0,1.2-.4,1.3,1.3,0,0,0,.4-1c0-.6-.1-1-.4-1.2a1.6,1.6,0,0,0-1.2-.4h-1.3v-2Z"/><path d="M156.8,39.2h-2.7V30.1h-2.3v-2l5-.4Z"/><path d="M167,37.2h4.9v2h-7.5V27.9H167Z"/><path d="M180,34.4h-4v2.8h4.8v2h-7.5V27.9h7.5v2H176v2.4h4Z"/><path d="M182.2,39.2V27.9h4.2a4.7,4.7,0,0,1,3.4,1.3,4.3,4.3,0,0,1,1.3,3.3v2.1a4.3,4.3,0,0,1-1.3,3.3,4.7,4.7,0,0,1-3.4,1.3Zm2.7-9.3v7.3h1.5a1.8,1.8,0,0,0,1.5-.7,3.1,3.1,0,0,0,.6-1.9V32.5a2.9,2.9,0,0,0-.6-1.9,1.8,1.8,0,0,0-1.5-.7Z"/><path d="M196.7,39.2V27.9h4.1a4.5,4.5,0,0,1,3.4,1.3,4.4,4.4,0,0,1,1.4,3.3v2.1a4.4,4.4,0,0,1-1.4,3.3,4.5,4.5,0,0,1-3.4,1.3Zm2.6-9.3v7.3h1.5a1.8,1.8,0,0,0,1.5-.7,3.1,3.1,0,0,0,.6-1.9V32.5a2.9,2.9,0,0,0-.6-1.9,1.8,1.8,0,0,0-1.5-.7Z"/><path d="M211.6,33h-.8l-.8.2-.4.5v5.5H207V30.8h2.5V32a1.8,1.8,0,0,1,.7-1,1.2,1.2,0,0,1,1-.4h.6Z"/><path d="M215.4,28.8h-2.7V27h2.7Zm0,10.4h-2.7V30.8h2.7Z"/><path d="M220.2,35.7v.9h.1v-.9l1.2-4.9h2.7l-2.7,8.4H219l-2.8-8.4H219Z"/><path d="M228.9,39.4a3.8,3.8,0,0,1-3-1.2,3.6,3.6,0,0,1-1.1-2.9V35a4.7,4.7,0,0,1,1-3.2,3.8,3.8,0,0,1,3-1.2,3.6,3.6,0,0,1,2.6,1,3.9,3.9,0,0,1,1,2.8v1.4h-4.9a1.2,1.2,0,0,0,.5,1,1.7,1.7,0,0,0,1.2.5l1.3-.2a3,3,0,0,0,1.1-.4l.7,1.6a5.2,5.2,0,0,1-1.5.7A6.3,6.3,0,0,1,228.9,39.4Zm-.1-6.8a1.1,1.1,0,0,0-1,.5,1.5,1.5,0,0,0-.3,1h2.3V34a2.2,2.2,0,0,0-.2-1A1.2,1.2,0,0,0,228.8,32.6Z"/><path d="M238.2,33h-.9l-.7.2a1.2,1.2,0,0,0-.5.5v5.5h-2.6V30.8H236V32a1.8,1.8,0,0,1,.7-1,1.3,1.3,0,0,1,1-.4h.6Z"/><path d="M250.4,35.5h0l.8-4.7h2.6l-2,8.4h-2.3l-1.3-4.3h-.1l-1.4,4.3h-2.2l-2-8.4H245l.9,4.7h0l1.4-4.7H249Z"/><path d="M257.5,28.8h-2.7V27h2.7Zm0,10.4h-2.7V30.8h2.7Z"/><path d="M262.1,28.7v2.1h1.4v1.8h-1.4v3.9a.8.8,0,0,0,.2.6c.1.2.3.2.5.2h.6l.2,1.9h-1.5a2.4,2.4,0,0,1-1.9-.7,2.9,2.9,0,0,1-.7-2.2V32.6h-1.2V30.8h1.2V28.7Z"/><path d="M267.3,31.8a3.8,3.8,0,0,1,.9-.9,2.8,2.8,0,0,1,1.3-.3,2.5,2.5,0,0,1,2,.9,4.6,4.6,0,0,1,.8,2.9v4.8h-2.7V34.4a4.1,4.1,0,0,0-.2-1.4,1,1,0,0,0-.8-.4l-.8.2-.5.3v6.1h-2.6V27h2.6Z"/><path d="M280.7,39.2H278V27.9h2.7Z"/><path d="M284.9,30.8V32a2.4,2.4,0,0,1,1-1,2.5,2.5,0,0,1,1.4-.4,2.2,2.2,0,0,1,1.9.9,3.7,3.7,0,0,1,.7,2.6v5.1h-2.6V34.1a1.6,1.6,0,0,0-.3-1.1.8.8,0,0,0-.7-.4l-.8.2a1,1,0,0,0-.5.4v6h-2.7V30.8Z"/><path d="M294.5,28.7v2.1h1.3v1.8h-1.3v3.9a.8.8,0,0,0,.2.6c.1.2.3.2.5.2h.6l.2,1.9h-1.5a2.7,2.7,0,0,1-2-.7,3.4,3.4,0,0,1-.6-2.2V32.6h-1.2V30.8h1.2V28.7Z"/><path d="M300.9,39.4a3.8,3.8,0,0,1-3-1.2,3.6,3.6,0,0,1-1.1-2.9V35a4.7,4.7,0,0,1,1-3.2,3.8,3.8,0,0,1,3-1.2,3.6,3.6,0,0,1,2.6,1,3.9,3.9,0,0,1,1,2.8v1.4h-4.9a1.6,1.6,0,0,0,.5,1,1.7,1.7,0,0,0,1.2.5l1.3-.2a4.1,4.1,0,0,0,1.2-.4l.6,1.6a5.2,5.2,0,0,1-1.5.7A5.8,5.8,0,0,1,300.9,39.4Zm-.1-6.8a1.2,1.2,0,0,0-1,.5,1.5,1.5,0,0,0-.3,1h2.3V34a2.2,2.2,0,0,0-.2-1A1.2,1.2,0,0,0,300.8,32.6Z"/><path d="M310.2,33h-.9l-.7.2a1.2,1.2,0,0,0-.5.5v5.5h-2.6V30.8H308V32a1.8,1.8,0,0,1,.7-1,1.3,1.3,0,0,1,1-.4h.6Z"/><path d="M313.6,30.8V32a1.9,1.9,0,0,1,1-1,2,2,0,0,1,1.3-.4,2.4,2.4,0,0,1,2,.9,3.7,3.7,0,0,1,.7,2.6v5.1H316V34.1c0-.5,0-.9-.2-1.1a1,1,0,0,0-.8-.4l-.7.2-.6.4v6h-2.6V30.8Z"/><path d="M325,39.2a1.4,1.4,0,0,1-.2-.6,1.4,1.4,0,0,1-.2-.7,2.4,2.4,0,0,1-.9,1.1,1.7,1.7,0,0,1-1.3.4,2.6,2.6,0,0,1-2-.7,2.4,2.4,0,0,1-.8-1.9,2.2,2.2,0,0,1,1-1.9,4.5,4.5,0,0,1,2.8-.7h1.1v-.6a1.9,1.9,0,0,0-.2-.8,1.1,1.1,0,0,0-.8-.3l-.7.2a.8.8,0,0,0-.2.7H320a2.3,2.3,0,0,1,1-1.9,4,4,0,0,1,2.6-.8,4.2,4.2,0,0,1,2.6.8,2.9,2.9,0,0,1,1,2.2v3.2a5.3,5.3,0,0,0,.1,1.3l.3,1.1Zm-1.9-1.7.9-.2c.2-.2.4-.3.5-.6V35.6h-1a1.3,1.3,0,0,0-1,.3,1.9,1.9,0,0,0-.2.8.7.7,0,0,0,.2.6Z"/><path d="M331.4,39.2h-2.7V27h2.7Z"/><path d="M339.8,35.3v3.9h-2.7V27.9h4.4a4.7,4.7,0,0,1,3.2,1,3.6,3.6,0,0,1,0,5.4,4.7,4.7,0,0,1-3.2,1Zm0-2h1.7a1.9,1.9,0,0,0,1.3-.5,2,2,0,0,0,0-2.4,1.4,1.4,0,0,0-1.3-.5h-1.7Z"/><path d="M351.8,33H351l-.8.2-.4.5v5.5h-2.6V30.8h2.5V32a1.8,1.8,0,0,1,.7-1,1.3,1.3,0,0,1,1-.4h.6Z"/><path d="M352.3,34.9a4.7,4.7,0,0,1,1.1-3.1,4.4,4.4,0,0,1,6,0,4.7,4.7,0,0,1,1.1,3.1v.2a4.5,4.5,0,0,1-1.1,3.1,4.3,4.3,0,0,1-6,0,4.5,4.5,0,0,1-1.1-3.1Zm2.7.2a4,4,0,0,0,.3,1.7,1.3,1.3,0,0,0,2.2,0,4.3,4.3,0,0,0,.4-1.7v-.2a3.4,3.4,0,0,0-.4-1.6,1.2,1.2,0,0,0-2.2,0,3.5,3.5,0,0,0-.3,1.6Z"/><path d="M361.3,35a5.3,5.3,0,0,1,.9-3.2,2.6,2.6,0,0,1,2.4-1.2l1.2.3a2.4,2.4,0,0,1,.8.9l.2-1h2.3v8.3a3,3,0,0,1-1.1,2.6,5.1,5.1,0,0,1-3.2.9h-1.3l-1.4-.5.4-2,1.1.4h1.2a2.3,2.3,0,0,0,1.3-.3,1.2,1.2,0,0,0,.4-1.1v-.6a2.7,2.7,0,0,1-.8.7l-1.1.2a2.6,2.6,0,0,1-2.4-1.2,4.7,4.7,0,0,1-.9-3Zm2.6.2a3.5,3.5,0,0,0,.3,1.6,1.1,1.1,0,0,0,1,.6l.8-.2a1,1,0,0,0,.5-.4V33.3l-.5-.5-.7-.2a1.4,1.4,0,0,0-1.1.7,4,4,0,0,0-.3,1.7Z"/><path d="M375.3,33h-.8l-.8.2a1,1,0,0,0-.4.5v5.5h-2.7V30.8h2.5V32a2.6,2.6,0,0,1,.7-1,1.5,1.5,0,0,1,1.1-.4h.6Z"/><path d="M381.2,39.2l-.3-.6a1.5,1.5,0,0,1-.1-.7,5.3,5.3,0,0,1-.9,1.1,1.8,1.8,0,0,1-1.3.4,2.8,2.8,0,0,1-2.1-.7,2.4,2.4,0,0,1-.7-1.9,2.3,2.3,0,0,1,.9-1.9,4.8,4.8,0,0,1,2.9-.7h1.1v-.6a1.1,1.1,0,0,0-.3-.8c-.1-.2-.4-.3-.8-.3a.8.8,0,0,0-.6.2.9.9,0,0,0-.3.7h-2.5a2,2,0,0,1,.9-1.9,4.6,4.6,0,0,1,2.7-.8,4.2,4.2,0,0,1,2.6.8,2.8,2.8,0,0,1,.9,2.2v3.2c0,.5.1.9.1,1.3a4.9,4.9,0,0,0,.4,1.1Zm-1.9-1.7.9-.2c.2-.2.4-.3.5-.6V35.6h-1.1a1.2,1.2,0,0,0-.9.3,1.1,1.1,0,0,0-.3.8.9.9,0,0,0,.3.6A.8.8,0,0,0,379.3,37.5Z"/><path d="M387.3,30.8v1.1a5.2,5.2,0,0,1,1.1-1,2.8,2.8,0,0,1,1.3-.3,2.1,2.1,0,0,1,1.4.4,1.8,1.8,0,0,1,.9,1,2.4,2.4,0,0,1,1-1,2.1,2.1,0,0,1,1.4-.4,2.2,2.2,0,0,1,1.9.9,4.1,4.1,0,0,1,.7,2.7v5h-2.6v-5a1.7,1.7,0,0,0-.3-1.2.8.8,0,0,0-.7-.4l-.7.2a1,1,0,0,0-.5.4v6h-2.6v-5a1.7,1.7,0,0,0-.3-1.2.8.8,0,0,0-.7-.4l-.7.2a1,1,0,0,0-.5.4v6h-2.6V30.8Z"/><path d="M408.7,35.8h0l2.6-7.9h3.5V39.2h-2.6V31.9h-.1l-2.5,7.3h-1.8L405.4,32h-.1v7.2h-2.6V27.9h3.5Z"/><path d="M420.2,39.4a3.8,3.8,0,0,1-3-1.2,4,4,0,0,1-1.1-2.9V35a5.3,5.3,0,0,1,1-3.2,3.8,3.8,0,0,1,3-1.2,3.9,3.9,0,0,1,2.7,1,4.3,4.3,0,0,1,.9,2.8v1.4h-4.9a2.3,2.3,0,0,0,.5,1,1.7,1.7,0,0,0,1.3.5l1.2-.2a2.8,2.8,0,0,0,1.2-.4l.6,1.6a3.7,3.7,0,0,1-1.4.7A6.9,6.9,0,0,1,420.2,39.4Zm-.1-6.8a1.1,1.1,0,0,0-.9.5,2.3,2.3,0,0,0-.4,1h2.3V34c0-.5,0-.8-.2-1A1,1,0,0,0,420.1,32.6Z"/><path d="M427.3,30.8v1.1l1-1a3.2,3.2,0,0,1,1.4-.3,2.3,2.3,0,0,1,1.4.4,2.1,2.1,0,0,1,.8,1,3.2,3.2,0,0,1,1-1,2.4,2.4,0,0,1,1.5-.4,2.3,2.3,0,0,1,1.9.9,4.1,4.1,0,0,1,.7,2.7v5h-2.6v-5a1.7,1.7,0,0,0-.3-1.2,1,1,0,0,0-.8-.4l-.6.2a1,1,0,0,0-.5.4v6h-2.7v-5c0-.6,0-1-.2-1.2a1,1,0,0,0-.8-.4l-.6.2a1,1,0,0,0-.5.4v6h-2.7V30.8Z"/><path d="M438.3,34.9a4.6,4.6,0,0,1,1-3.1,4.1,4.1,0,0,1,3-1.2,4.1,4.1,0,0,1,3.1,1.2,4.6,4.6,0,0,1,1,3.1v.2a4.5,4.5,0,0,1-1,3.1,4.1,4.1,0,0,1-3,1.2,4.1,4.1,0,0,1-3.1-1.2,4.5,4.5,0,0,1-1-3.1Zm2.6.2a4,4,0,0,0,.3,1.7,1.3,1.3,0,0,0,1.2.6,1.3,1.3,0,0,0,1.1-.6,4.3,4.3,0,0,0,.3-1.7v-.2a3.5,3.5,0,0,0-.3-1.6,1.4,1.4,0,0,0-1.2-.7,1.4,1.4,0,0,0-1.1.7,3.5,3.5,0,0,0-.3,1.6Z"/><path d="M452.3,33h-.9l-.7.2-.5.5v5.5h-2.6V30.8h2.5V32a2.6,2.6,0,0,1,.7-1,1.3,1.3,0,0,1,1-.4h.6Z"/><path d="M456.7,35.5h0l1.4-4.8h2.8l-3.3,9.7a4.2,4.2,0,0,1-1.1,1.5,2.5,2.5,0,0,1-1.9.6H454l-.7-.2.4-1.8h.3l.9-.2a1,1,0,0,0,.4-.5l.2-.6-2.9-8.5h2.8Z"/><path d="M95.8,52.4h-.7V44.6h.7Z"/><path d="M102.6,52.4H97.7v-.5l2.5-2.9a1.9,1.9,0,0,0,.6-.7l.5-.6c.1-.2.1-.4.2-.6v-.4a1.5,1.5,0,0,0-.1-.7.5.5,0,0,0-.3-.5.9.9,0,0,0-.5-.3l-.7-.2-.7.2-.6.4a.9.9,0,0,0-.3.5,2.4,2.4,0,0,0-.2.8h-.6a3,3,0,0,1,.2-1,2.5,2.5,0,0,1,.4-.7l.8-.5,1-.2h1l.7.5c.2.1.3.4.4.6a2.9,2.9,0,0,1,.2.9c0,.2-.1.5-.1.7a1.6,1.6,0,0,1-.4.7,1.8,1.8,0,0,1-.5.7l-.6.7-2.1,2.5h4.1Z"/><path d="M109.6,50l-.3,1.1-.6.8-.9.5h-1.1a2.2,2.2,0,0,1-1.2-.2l-1-.7-.6-1.1a7.7,7.7,0,0,1-.2-1.5V48a5.9,5.9,0,0,1,.2-1.4l.6-1.1a2.3,2.3,0,0,1,1-.7,2.7,2.7,0,0,1,1.2-.3l1.2.2.8.5.6.8.3,1.1h-.7a2.4,2.4,0,0,0-.2-.9l-.4-.6-.7-.4h-.9a1.3,1.3,0,0,0-.9.2,1.6,1.6,0,0,0-.8.6,1.9,1.9,0,0,0-.4.9,5,5,0,0,0-.2,1.2v1a5,5,0,0,0,.2,1.2,1.9,1.9,0,0,0,.4.9,2.3,2.3,0,0,0,.7.7l1,.2a2.1,2.1,0,0,0,1.5-.5,2.4,2.4,0,0,0,.7-1.5Z"/><path d="M114.4,53.9h-.6V44.6h.6Z"/><path d="M119.6,49.2v3.2h-.7V44.6h2.7l1.1.2a2.6,2.6,0,0,1,.9.5,1.8,1.8,0,0,1,.5.7,2.8,2.8,0,0,1,.1.9,3.1,3.1,0,0,1-.1,1,1.8,1.8,0,0,1-.5.7,1.9,1.9,0,0,1-.9.5h-3.1Zm0-.5h2.9l.6-.4.4-.6c0-.2.1-.4.1-.6s-.1-.5-.1-.7a2.1,2.1,0,0,0-.4-.6.9.9,0,0,0-.6-.4h-2.9Z"/><path d="M127.2,50.3l.2,1.2.3-1.1,1.7-5.8h.6l1.7,5.8.3,1.1.2-1.2,1.4-5.7h.7l-2,7.8h-.6l-1.8-6.1-.2-.8-.2.8-1.8,6.1h-.6l-2-7.8h.6Z"/><path d="M136.5,44.6l2.8,6.9,2.9-6.9h.9v7.8h-.6V45.5l-2.9,6.9h-.5l-2.9-6.8v6.8h-.6V44.6Z"/><path d="M153.3,50a2.3,2.3,0,0,1-.3,1.1,3.5,3.5,0,0,1-.5.8l-.9.5h-1.2a2.5,2.5,0,0,1-1.2-.2l-.9-.7a2.4,2.4,0,0,1-.6-1.1,7.7,7.7,0,0,1-.2-1.5V48a5.9,5.9,0,0,1,.2-1.4,2.4,2.4,0,0,1,.6-1.1,2.9,2.9,0,0,1,2.2-1l1.1.2.9.5a2.2,2.2,0,0,1,.5.8,2,2,0,0,1,.3,1.1h-.7a2.4,2.4,0,0,0-.2-.9l-.4-.6-.6-.4h-.9a1.6,1.6,0,0,0-1,.2,1.3,1.3,0,0,0-.7.6,1.9,1.9,0,0,0-.5.9,4.9,4.9,0,0,0-.1,1.2v1a4.9,4.9,0,0,0,.1,1.2,3.9,3.9,0,0,0,.4.9,2.7,2.7,0,0,0,.8.7l.9.2a2.5,2.5,0,0,0,1.6-.5,2.3,2.3,0,0,0,.6-1.5Z"/><path d="M154.4,49.4a3.6,3.6,0,0,1,.2-1.1,3.1,3.1,0,0,1,.5-1l.8-.6,1.1-.2,1.1.2.8.6a3.1,3.1,0,0,1,.5,1,3.6,3.6,0,0,1,.2,1.1v.2a5,5,0,0,1-.2,1.2,2.6,2.6,0,0,1-.5.9,1.6,1.6,0,0,1-.8.6,2,2,0,0,1-1.1.2,2.2,2.2,0,0,1-1.1-.2,2.1,2.1,0,0,1-.8-.6,2.6,2.6,0,0,1-.5-.9,5,5,0,0,1-.2-1.2Zm.7.2a2.8,2.8,0,0,0,.1.9,2,2,0,0,0,.4.8,1,1,0,0,0,.6.5l.8.2.8-.2a1.8,1.8,0,0,0,.7-.5l.3-.8a2.9,2.9,0,0,0,.2-.9v-.2a2.9,2.9,0,0,0-.2-.9l-.3-.7a1.8,1.8,0,0,0-.7-.5,1.7,1.7,0,0,0-1.6,0,1,1,0,0,0-.6.5,1.6,1.6,0,0,0-.4.7,2.8,2.8,0,0,0-.1.9Z"/><path d="M161.5,46.6v1l.3-.4c.1-.2.3-.3.4-.4l.6-.2h1.3a.9.9,0,0,1,.6.4,1.6,1.6,0,0,1,.4.7,2.5,2.5,0,0,1,.1.9v3.8h-.6V48.6c0-.3-.1-.5-.1-.7l-.3-.5-.4-.3h-1.2l-.5.3c-.2.1-.3.3-.4.4a1.7,1.7,0,0,0-.2.5v4h-.7V46.6Z"/><path d="M168,45.1v1.5h1.2v.5H168v4.4l.2.3h1v.5h-1.2l-.4-.3-.3-.5c0-.2-.1-.4-.1-.7V47.1h-1v-.5h1V45.1Z"/><path d="M173.2,47.2h-1l-.5.3-.3.4-.3.5v4h-.6V46.6h.6v.9a2.3,2.3,0,0,1,.7-.7,1.7,1.7,0,0,1,1-.3h.4Z"/><path d="M173.7,49.4a3.6,3.6,0,0,1,.2-1.1,3.3,3.3,0,0,1,.6-1,2.8,2.8,0,0,1,.8-.6l1-.2,1.1.2.8.6a1.9,1.9,0,0,1,.5,1,2,2,0,0,1,.2,1.1v.2a2.5,2.5,0,0,1-.2,1.2,1.6,1.6,0,0,1-.5.9,1.6,1.6,0,0,1-.8.6,2,2,0,0,1-1.1.2,1.6,1.6,0,0,1-1-.2,1.6,1.6,0,0,1-.8-.6c-.3-.2-.4-.6-.6-.9a5,5,0,0,1-.2-1.2Zm.7.2a2.8,2.8,0,0,0,.1.9,2,2,0,0,0,.4.8l.6.5.8.2.9-.2.6-.5a2,2,0,0,0,.4-.8c0-.3.1-.6.1-.9v-.2c0-.3-.1-.6-.1-.9a1.6,1.6,0,0,0-.4-.7l-.6-.5a1.5,1.5,0,0,0-.9-.2,1.1,1.1,0,0,0-.8.2l-.6.5a1.6,1.6,0,0,0-.4.7,2.8,2.8,0,0,0-.1.9Z"/><path d="M181,52.4h-.7V44.2h.7Z"/><path d="M186.1,53.9h-.6V44.6h.6Z"/><path d="M191.5,44.6l2.9,6.9,2.9-6.9h.9v7.8h-.7V45.5l-2.9,6.9h-.5l-2.9-6.8v6.8h-.7V44.6Z"/><path d="M203.7,52.4a.4.4,0,0,1-.1-.3v-.5c-.1.1-.2.3-.4.4l-.4.3-.6.2h-1.4l-.6-.3c-.1-.2-.3-.4-.3-.6a1.4,1.4,0,0,1-.2-.6,1.9,1.9,0,0,1,.2-.8l.5-.6.9-.3,1.1-.2h1.2v-.6a1.5,1.5,0,0,0-.4-1,2.1,2.1,0,0,0-1.1-.4h-.7l-.5.3-.3.4a.6.6,0,0,0-.1.4h-.6a1.3,1.3,0,0,1,.1-.6l.5-.6a1.5,1.5,0,0,1,.7-.3l.9-.2h.8l.7.4a.9.9,0,0,1,.4.6,1.9,1.9,0,0,1,.2.8v3.4a.4.4,0,0,1,.1.3.4.4,0,0,0,.1.3h-.7Zm-2-.4h.6l.6-.3.4-.3.3-.5V49.5h-2l-.7.3a.8.8,0,0,0-.4.4,1.3,1.3,0,0,0,0,1c0,.1.1.2.2.3l.4.3Z"/><path d="M209.4,50.9a.4.4,0,0,0-.1-.3c0-.1-.1-.2-.2-.3l-.5-.3-.8-.3-.8-.2-.7-.3-.4-.5c0-.2-.1-.4-.1-.6s.1-.4.1-.6a1.2,1.2,0,0,1,.5-.5c.1-.2.4-.3.6-.4h1.8c.2.1.5.2.6.4s.4.3.5.6a1.3,1.3,0,0,1,.1.6h-.6c0-.1-.1-.3-.1-.4l-.3-.4-.5-.2h-1.3l-.4.3-.3.3v.7l.2.3.5.3.8.2.9.3.6.3.4.5a1.3,1.3,0,0,1,.1.6,1.5,1.5,0,0,1-.1.7l-.4.5-.7.3h-1.9l-.7-.4-.4-.5a2.5,2.5,0,0,1-.2-.7h.7a1.3,1.3,0,0,0,.1.6l.4.3.5.2h1.2l.5-.2.3-.4C209.4,51.2,209.4,51.1,209.4,50.9Z"/><path d="M212.5,45.1v1.5h1.2v.5h-1.2v4.4l.2.3h1.1v.5h-1.2l-.4-.3-.3-.5c0-.2-.1-.4-.1-.7V47.1h-1v-.5h1V45.1Z"/><path d="M217.3,52.5a2,2,0,0,1-1.1-.2,1.6,1.6,0,0,1-.8-.6,1.9,1.9,0,0,1-.5-.9,2,2,0,0,1-.2-1.1v-.2a2.7,2.7,0,0,1,.2-1.3,4.1,4.1,0,0,1,.5-.9l.8-.6.9-.2,1,.2a1.6,1.6,0,0,1,.8.6l.4.8a3.7,3.7,0,0,1,.1,1.1v.4h-4.1a2.8,2.8,0,0,0,.1.9,1.8,1.8,0,0,0,.5.7,1,1,0,0,0,.6.5l.8.2.9-.2a1.3,1.3,0,0,0,.7-.6l.4.3-.3.4-.5.3-.5.3Zm-.2-5.4h-.6l-.6.4-.4.6c-.1.3-.1.5-.2.8h3.5a2,2,0,0,0-.1-.7l-.3-.6-.5-.4Z"/><path d="M223.4,47.2h-1l-.5.3c-.1.1-.3.2-.3.4l-.3.5v4h-.6V46.6h.6v.9a2.3,2.3,0,0,1,.7-.7,1.5,1.5,0,0,1,1-.3h.4Z"/><path d="M231.5,48.8h-3.6v3.6h-.7V44.6h4.9v.6h-4.2v3h3.6Z"/><path d="M236.7,52.4v-.3a.9.9,0,0,1-.1-.5l-.3.4-.5.3-.5.2h-1.4l-.6-.3a2.1,2.1,0,0,1-.4-.6,1.3,1.3,0,0,1-.1-.6,1.1,1.1,0,0,1,.2-.8l.5-.6.8-.3,1.1-.2h1.2v-.6a1.2,1.2,0,0,0-.4-1,1.6,1.6,0,0,0-1.1-.4h-.6l-.5.3-.3.4a.6.6,0,0,0-.1.4h-.7a1.4,1.4,0,0,1,.2-.6l.4-.6.7-.3.9-.2h.9l.7.4a.9.9,0,0,1,.4.6,1.9,1.9,0,0,1,.2.8v3.4a.4.4,0,0,0,.1.3v.3h-.7Zm-2-.4h.7l.5-.3.4-.3.3-.5V49.5h-2l-.6.3a.8.8,0,0,0-.4.4c-.1.2-.2.3-.2.5s.1.3.1.5l.3.3.4.3Z"/><path d="M238.7,49.5a5.1,5.1,0,0,1,.2-1.3,3.6,3.6,0,0,1,.4-.9l.7-.6,1-.2a1.7,1.7,0,0,1,1,.3,1.6,1.6,0,0,1,.8.6V44.2h.6v8.2h-.6v-.7l-.8.6a1.8,1.8,0,0,1-1.1.2,1.5,1.5,0,0,1-.9-.2,1.3,1.3,0,0,1-.7-.6,2.5,2.5,0,0,1-.4-.9,5,5,0,0,1-.2-1.2Zm.7.1a2.8,2.8,0,0,0,.1.9,1.1,1.1,0,0,0,.3.8,1.2,1.2,0,0,0,.5.5l.8.2h.6l.4-.2a.8.8,0,0,0,.4-.4l.3-.4V48.2l-.3-.4-.3-.4-.5-.2h-.6a1.1,1.1,0,0,0-.8.2.8.8,0,0,0-.5.5.9.9,0,0,0-.3.7,3.1,3.1,0,0,0-.1,1Z"/><path d="M247.3,52.5a1.8,1.8,0,0,1-1-.2,1.6,1.6,0,0,1-.8-.6,1.5,1.5,0,0,1-.6-.9,3.6,3.6,0,0,1-.2-1.1v-.2a5.1,5.1,0,0,1,.2-1.3,4.7,4.7,0,0,1,.6-.9l.8-.6.9-.2,1,.2a1.3,1.3,0,0,1,.7.6,2.2,2.2,0,0,1,.5.8,3.7,3.7,0,0,1,.1,1.1v.4h-4.1a2.8,2.8,0,0,0,.1.9,1.6,1.6,0,0,0,.4.7l.6.5.9.2.9-.2a1.9,1.9,0,0,0,.7-.6l.4.3-.3.4-.5.3-.6.3Zm-.1-5.4h-.7a1,1,0,0,0-.5.4l-.4.6a2.4,2.4,0,0,0-.2.8h3.5c0-.2-.1-.4-.1-.7l-.4-.6-.5-.4Z"/><path d="M253.4,47.2h-1l-.4.3a.8.8,0,0,0-.4.4l-.2.5v4h-.6V46.6h.6v.9l.6-.7a1.7,1.7,0,0,1,1-.3h.5Z"/><path d="M257.8,53.9h-.5V44.6h.5Z"/><path d="M266.7,48.7h-3.6v3.2h4.2v.5h-4.9V44.6h4.8v.6h-4.1v2.9h3.6Z"/><path d="M270.3,49l1.6-2.4h.8l-2,2.9,2,2.9H272L270.3,50l-1.6,2.4h-.8l2.1-2.9-2-2.9h.8Z"/><path d="M276,52.5a2.2,2.2,0,0,1-1.1-.2,2.1,2.1,0,0,1-.8-.6,1.9,1.9,0,0,1-.5-.9,3.6,3.6,0,0,1-.2-1.1v-.2a5.1,5.1,0,0,1,.2-1.3,4.1,4.1,0,0,1,.5-.9l.8-.6,1-.2,1,.2a1.9,1.9,0,0,1,.7.6,2,2,0,0,1,.4.8,3.6,3.6,0,0,1,.2,1.1v.4H274a2.9,2.9,0,0,0,.2.9,1.6,1.6,0,0,0,.4.7l.6.5.8.2.9-.2a1.3,1.3,0,0,0,.7-.6l.4.3c0,.1-.2.3-.3.4l-.4.3-.6.3Zm-.1-5.4h-.7l-.6.4-.3.6-.3.8h3.5a2,2,0,0,0-.1-.7l-.3-.6-.5-.4Z"/><path d="M281.6,52h.6l.5-.3.3-.4a1.1,1.1,0,0,0,.2-.6h.6a1.9,1.9,0,0,1-.2.8l-.5.6-.7.4h-.8a2,2,0,0,1-1.1-.2,1.6,1.6,0,0,1-.8-.6l-.5-.9a4.9,4.9,0,0,1-.1-1.2v-.2a3.7,3.7,0,0,1,.1-1.1l.5-1,.8-.6,1.1-.2.8.2a1,1,0,0,1,.7.4,1.5,1.5,0,0,1,.5.6,2.9,2.9,0,0,1,.2.9h-.6a1.4,1.4,0,0,0-.2-.7l-.3-.4c-.2-.2-.3-.3-.5-.3h-1.5l-.5.6a1.6,1.6,0,0,0-.4.7c0,.3-.1.6-.1.9v.2c0,.3.1.6.1.9a2,2,0,0,0,.4.8l.5.5Z"/><path d="M288.8,51.7a1.3,1.3,0,0,1-.7.6,2,2,0,0,1-1.1.2h-.8l-.6-.4c-.2-.1-.3-.4-.4-.7a2.8,2.8,0,0,1-.1-1V46.6h.6v3.7a1.7,1.7,0,0,0,.1.8l.3.5c.1.2.3.2.4.3h1.2c.2-.1.4-.1.5-.3l.4-.3c.1-.2.2-.3.2-.5V46.6h.7v5.8h-.7Z"/><path d="M292.1,45.1v1.5h1.2v.5h-1.2V51a4.3,4.3,0,0,0,.1.5c0,.1.1.2.2.3s.1.1.2.1h.8v.5c0,.1-.1.1-.3.1h-.9l-.4-.3a.8.8,0,0,1-.2-.5,1.5,1.5,0,0,1-.1-.7V47.1h-1.1v-.5h1.1V45.1Z"/><path d="M294.6,44.9c0-.1.1-.2.1-.3h.7a.4.4,0,0,1,.1.3c0,.2,0,.3-.1.3l-.3.2a.5.5,0,0,1-.4-.2A.4.4,0,0,1,294.6,44.9Zm.8,7.5h-.7V46.6h.7Z"/><path d="M296.8,49.4a2,2,0,0,1,.2-1.1,3.1,3.1,0,0,1,.5-1l.8-.6,1.1-.2,1,.2.9.6a3.1,3.1,0,0,1,.5,1,3.6,3.6,0,0,1,.2,1.1v.2a5,5,0,0,1-.2,1.2,2.6,2.6,0,0,1-.5.9,1.8,1.8,0,0,1-.9.6,1.6,1.6,0,0,1-1,.2,2,2,0,0,1-1.1-.2,1.6,1.6,0,0,1-.8-.6,2.6,2.6,0,0,1-.5-.9,2.5,2.5,0,0,1-.2-1.2Zm.6.2a2.9,2.9,0,0,0,.2.9,1.9,1.9,0,0,0,.3.8l.6.5.9.2.8-.2a1,1,0,0,0,.6-.5,2,2,0,0,0,.4-.8,2.8,2.8,0,0,0,.1-.9v-.2a2.8,2.8,0,0,0-.1-.9,1.6,1.6,0,0,0-.4-.7,1,1,0,0,0-.6-.5,1.1,1.1,0,0,0-.8-.2,1.5,1.5,0,0,0-.9.2l-.6.5a1.5,1.5,0,0,0-.3.7,2.9,2.9,0,0,0-.2.9Z"/><path d="M303.9,46.6v1l.4-.4a.8.8,0,0,1,.4-.4l.5-.2h1.4l.6.4a1.5,1.5,0,0,1,.3.7,2.4,2.4,0,0,1,.2.9v3.8H307V48.6a1.5,1.5,0,0,0-.1-.7.8.8,0,0,0-.2-.5l-.5-.3H305l-.5.3-.3.4-.3.5v4h-.6V46.6Z"/><path d="M316.5,48.7h-3.7v3.2H317v.5h-4.8V44.6H317v.6h-4.2v2.9h3.7Z"/><path d="M318.9,46.6v1l.3-.4.5-.4.5-.2h1.4l.6.4.3.7a2.4,2.4,0,0,1,.2.9v3.8H322V48.6a1.5,1.5,0,0,0-.1-.7c-.1-.2-.1-.4-.3-.5l-.4-.3H320l-.5.3-.3.4c-.2.2-.2.4-.3.5v4h-.6V46.6Z"/><path d="M324.1,49.5a5.3,5.3,0,0,1,.1-1.3l.4-.9.8-.6.9-.2a2,2,0,0,1,1.1.3,1.6,1.6,0,0,1,.7.7v-.9h.6v5.7a3.1,3.1,0,0,1-.1,1,2.2,2.2,0,0,1-.5.8,1.8,1.8,0,0,1-.7.5h-1.6l-.5-.2-.5-.3a1,1,0,0,1-.4-.5l.3-.3a2.1,2.1,0,0,0,.8.6l.9.2h.7a1,1,0,0,0,.5-.4,1.3,1.3,0,0,0,.4-.6c0-.2.1-.5.1-.7v-.7l-.7.6a2,2,0,0,1-1.1.2c-.4,0-.7,0-.9-.2a1.6,1.6,0,0,1-.8-.6l-.4-.9a4.9,4.9,0,0,1-.1-1.2Zm.6.1a2.8,2.8,0,0,0,.1.9l.3.8c.2.2.3.4.5.5l.8.2h.6l.5-.2.3-.4.3-.4V48.2a.8.8,0,0,1-.2-.4c-.1-.2-.3-.3-.4-.4l-.5-.2h-.6a1.2,1.2,0,0,0-.8.2,1.2,1.2,0,0,0-.5.5l-.3.7a3.1,3.1,0,0,0-.1,1Z"/><path d="M330.4,44.9a.4.4,0,0,1,.1-.3h.3c.2,0,.3,0,.3.1s.2.2.2.3-.1.3-.2.3-.1.2-.3.2l-.3-.2C330.4,45.2,330.4,45.1,330.4,44.9Zm.7,7.5h-.6V46.6h.6Z"/><path d="M333.5,46.6v1a.8.8,0,0,1,.4-.4l.4-.4.5-.2h1.4l.6.4.3.7a2.4,2.4,0,0,1,.2.9v3.8h-.7V48.6a1.5,1.5,0,0,0-.1-.7.8.8,0,0,0-.2-.5l-.5-.3h-1.2l-.5.3-.3.4-.3.5v4h-.6V46.6Z"/><path d="M341.2,52.5a2,2,0,0,1-1.1-.2,1.6,1.6,0,0,1-.8-.6,1.9,1.9,0,0,1-.5-.9,2,2,0,0,1-.2-1.1v-.2a2.7,2.7,0,0,1,.2-1.3,4.1,4.1,0,0,1,.5-.9l.8-.6,1-.2.9.2a1.6,1.6,0,0,1,.8.6,2,2,0,0,1,.4.8,3.6,3.6,0,0,1,.2,1.1v.4h-4.2c0,.3.1.6.1.9a1.8,1.8,0,0,0,.5.7,1,1,0,0,0,.6.5l.8.2.9-.2a1.3,1.3,0,0,0,.7-.6l.4.3-.3.4-.5.3-.5.3Zm-.1-5.4h-.7l-.6.4-.4.6c-.1.3-.1.5-.2.8h3.5a2,2,0,0,0-.1-.7l-.3-.6-.5-.4Z"/><path d="M348.1,50.9a.4.4,0,0,0-.1-.3c0-.1-.1-.2-.2-.3l-.5-.3-.8-.3-.8-.2-.7-.3-.4-.5a1.9,1.9,0,0,1,0-1.2,1.2,1.2,0,0,1,.5-.5.9.9,0,0,1,.6-.4h1.8l.6.4c.2.2.4.3.4.6a1.4,1.4,0,0,1,.2.6h-.6c0-.1-.1-.3-.1-.4l-.3-.4-.5-.2h-1.3l-.4.3-.3.3c0,.1-.1.2-.1.4s.1.2.1.3.1.2.2.3l.5.3.8.2.9.3.6.3.4.5a1.3,1.3,0,0,1,.1.6,1.5,1.5,0,0,1-.1.7l-.5.5-.6.3h-1.9l-.7-.4-.4-.5a2.5,2.5,0,0,1-.2-.7h.7a1.3,1.3,0,0,0,.1.6l.4.3.5.2h1.2l.5-.2.3-.4C348.1,51.2,348.1,51.1,348.1,50.9Z"/><path d="M353.5,53.9H353V44.6h.5Z"/><path d="M362.3,50.2h-3.5l-.8,2.2h-.7l2.9-7.8h.7l2.9,7.8h-.7Zm-3.3-.5h3.1l-1.6-4.3Z"/><path d="M365.5,52.4h-.6V44.2h.6Z"/><path d="M368.3,45.1v1.5h1.2v.5h-1.2v4.4l.2.3h.3c0,.1.1.1.2.1h.6v.5h-1.2l-.4-.3-.3-.5c0-.2-.1-.4-.1-.7V47.1h-1v-.5h1V45.1Z"/><path d="M370.8,44.9a.4.4,0,0,1,.1-.3h.3c.2,0,.3,0,.3.1s.2.2.2.3-.1.3-.2.3-.1.2-.3.2l-.3-.2C370.8,45.2,370.8,45.1,370.8,44.9Zm.7,7.5h-.6V46.6h.6Z"/><path d="M377,51.7a1.3,1.3,0,0,1-.7.6,2,2,0,0,1-1.1.2h-.8l-.6-.4c-.2-.1-.3-.4-.4-.7a2.8,2.8,0,0,1-.1-1V46.6h.6v3.7a1.7,1.7,0,0,0,.1.8l.3.5c.1.2.3.2.4.3h1.2c.2-.1.4-.1.5-.3l.4-.3c.1-.2.2-.3.2-.5V46.6h.7v5.8H377Z"/><path d="M379.9,46.6v1l.4-.5.4-.3.5-.2h.6a2,2,0,0,1,1.1.3,1.9,1.9,0,0,1,.7.8l.3-.4.4-.4.6-.2h1.4a.9.9,0,0,1,.6.4,1.6,1.6,0,0,1,.4.7,2.5,2.5,0,0,1,.1.9v3.8h-.6V48.6a1.5,1.5,0,0,0-.1-.7l-.3-.5-.4-.3h-1.3a2.9,2.9,0,0,0-.9.9.7.7,0,0,0-.1.5v3.8H383V48.6a1.5,1.5,0,0,0-.1-.7.8.8,0,0,0-.2-.5l-.5-.3H381l-.5.3c-.1.1-.3.3-.3.4l-.3.5v4h-.6V46.6Z"/><path d="M392.4,53.9h-.5V44.6h.5Z"/><path d="M401.2,50.2h-3.5l-.8,2.2h-.7l2.9-7.8h.7l2.9,7.8H402Zm-3.3-.5H401l-1.6-4.3Z"/><path d="M406.8,49.2h-2.3v3.2h-.6V44.6h2.5l1.1.2a2,2,0,0,1,.8.4,2,2,0,0,1,.6.7,3,3,0,0,1,.2,1,1.4,1.4,0,0,1-.2.7,1.5,1.5,0,0,1-.3.7l-.5.4a.9.9,0,0,1-.7.3l2,3.4h-.7Zm-2.3-.6h2.8a.9.9,0,0,0,.6-.4l.4-.5c0-.3.1-.5.1-.7s-.1-.5-.1-.7l-.4-.6-.6-.3h-2.8Z"/><path d="M411.7,44.6l2.9,6.9,2.9-6.9h.9v7.8h-.7V45.5l-2.9,6.9h-.5l-2.9-6.8v6.8h-.6V44.6Z"/><path d="M422.2,49.2h-2.6v-.5h2.6Z"/><path d="M424.4,44.6l2.9,6.9,2.9-6.9h.9v7.8h-.7V45.5l-2.9,6.9H427l-2.9-6.8v6.8h-.7V44.6Z"/><path d="M436.7,49.9H438v.6h-1.3v1.9h-.6V50.5h-3.7v-.4l3.6-5.5h.7Zm-3.5,0h2.9V45.4l-.3.5Z"/><path d="M442.3,53.9h-.5V44.6h.5Z"/><path d="M452.4,50a4.3,4.3,0,0,1-.2,1.1l-.6.8-.9.5h-1.1a2.2,2.2,0,0,1-1.2-.2l-1-.7-.6-1.1a7.7,7.7,0,0,1-.2-1.5V48a5.9,5.9,0,0,1,.2-1.4l.6-1.1a2.3,2.3,0,0,1,1-.7,2.4,2.4,0,0,1,1.2-.3l1.1.2a1.9,1.9,0,0,1,.9.5l.6.8a3.6,3.6,0,0,1,.2,1.1h-.6c-.1-.4-.1-.6-.2-.9l-.5-.6a.9.9,0,0,0-.6-.4h-.9a1.8,1.8,0,0,0-1,.2,2.2,2.2,0,0,0-1.1,1.5,2.5,2.5,0,0,0-.2,1.2v1a4.9,4.9,0,0,0,.1,1.2,1.9,1.9,0,0,0,.5.9l.7.7,1,.2a2.1,2.1,0,0,0,1.5-.5,2.4,2.4,0,0,0,.7-1.5Z"/></g></g></svg>